<?xml version="1.0" encoding="UTF-8" standalone="no"?>
<svg
   width="394.03842pt"
   height="446.591pt"
   version="1.1"
   viewBox="0 0 394.03842 446.591"
   id="svg10"
   sodipodi:docname="confused.svg"
   inkscape:version="1.1.2 (0a00cf5339, 2022-02-04)"
   xmlns:inkscape="http://www.inkscape.org/namespaces/inkscape"
   xmlns:sodipodi="http://sodipodi.sourceforge.net/DTD/sodipodi-0.dtd"
   xmlns="http://www.w3.org/2000/svg"
   xmlns:svg="http://www.w3.org/2000/svg">
  <defs
     id="defs14" />
  <sodipodi:namedview
     id="namedview12"
     pagecolor="#ffffff"
     bordercolor="#666666"
     borderopacity="1.0"
     inkscape:pageshadow="2"
     inkscape:pageopacity="0.0"
     inkscape:pagecheckerboard="0"
     inkscape:document-units="pt"
     showgrid="false"
     inkscape:zoom="0.89660904"
     inkscape:cx="264.88691"
     inkscape:cy="298.90397"
     inkscape:window-width="1920"
     inkscape:window-height="1131"
     inkscape:window-x="0"
     inkscape:window-y="32"
     inkscape:window-maximized="1"
     inkscape:current-layer="svg10" />
  <g
     id="g8"
     transform="translate(-177.07525,-151.051)">
    <path
       d="M 447.04,336.7 H 302.6 c -16.574,0 -35.992,-6.1562 -49.254,-12.312 11.367,-8.5234 32.676,-14.68 48.777,-25.102 -16.574,-30.309 -17.523,-43.098 -14.207,-65.355 -1.8945,0.47656 -109.39,54.938 -110.82,93.297 -1.4219,43.098 70.562,80.98 115.55,83.824 l -5.6836,186.59 h 174.28 l -1.4219,-46.41 c 5.6836,4.7344 12.785,9.9453 19.891,9.9453 6.6289,0 13.262,-4.7344 18.941,-8.5234 33.152,-23.68 72.93,-63.934 72.457,-98.031 0.004,-48.305 -99.449,-117.92 -124.07,-117.92 z m 14.207,162.91 c -0.94531,0.47266 -1.4219,1.4219 -2.3672,2.3672 l -2.3672,-85.246 c 16.102,8.5234 37.414,28.887 47.832,38.832 -8.0547,10.898 -25.574,31.734 -43.098,44.047 z"
       id="path2" />
    <path
       d="m 378.68,171.65 c 41.535,2.1328 73.473,37.531 71.336,79.066 -2.1328,41.531 -37.531,73.469 -79.066,71.336 -41.531,-2.1367 -73.469,-37.535 -71.336,-79.066 2.1367,-41.531 37.535,-73.473 79.066,-71.336"
       id="path4" />
    <path
       d="m 522.34,184.68 c 0,-7.1055 -5.2109,-11.367 -14.68,-11.367 -8.9961,0 -16.574,3.7891 -23.68,10.891 L 469.3,168.102 c 9.4727,-10.418 21.785,-17.051 38.832,-17.051 22.73,0 38.359,11.84 38.359,33.152 0,20.363 -14.207,28.887 -31.258,32.203 l -1.8945,9.4727 h -16.102 l -3.7891,-25.574 0.94531,-0.94531 c 19.891,-0.94531 27.945,-6.1562 27.945,-14.68 z m -30.312,79.086 v -25.574 h 25.574 v 25.574 z"
       id="path6" />
  </g>
</svg>
