<?xml version="1.0" encoding="UTF-8" standalone="no"?>
<svg
   xmlns:dc="http://purl.org/dc/elements/1.1/"
   xmlns:cc="http://creativecommons.org/ns#"
   xmlns:rdf="http://www.w3.org/1999/02/22-rdf-syntax-ns#"
   xmlns:svg="http://www.w3.org/2000/svg"
   xmlns="http://www.w3.org/2000/svg"
   xmlns:sodipodi="http://sodipodi.sourceforge.net/DTD/sodipodi-0.dtd"
   xmlns:inkscape="http://www.inkscape.org/namespaces/inkscape"
   width="216.28799mm"
   height="64.855583mm"
   viewBox="0 0 216.28799 64.855584"
   version="1.1"
   id="svg8"
   inkscape:version="1.0.2 (e86c870879, 2021-01-15)"
   sodipodi:docname="example_signature.svg">
  <defs
     id="defs2" />
  <sodipodi:namedview
     id="base"
     pagecolor="#ffffff"
     bordercolor="#666666"
     borderopacity="1.0"
     inkscape:pageopacity="0.0"
     inkscape:pageshadow="2"
     inkscape:zoom="1.4"
     inkscape:cx="345.38609"
     inkscape:cy="232.74286"
     inkscape:document-units="mm"
     inkscape:current-layer="layer1"
     inkscape:document-rotation="0"
     showgrid="false"
     fit-margin-top="0"
     fit-margin-left="0"
     fit-margin-right="0"
     fit-margin-bottom="0"
     inkscape:window-width="1920"
     inkscape:window-height="1131"
     inkscape:window-x="0"
     inkscape:window-y="0"
     inkscape:window-maximized="1" />
  <metadata
     id="metadata5">
    <rdf:RDF>
      <cc:Work
         rdf:about="">
        <dc:format>image/svg+xml</dc:format>
        <dc:type
           rdf:resource="http://purl.org/dc/dcmitype/StillImage" />
        <dc:title></dc:title>
      </cc:Work>
    </rdf:RDF>
  </metadata>
  <g
     inkscape:label="Layer 1"
     inkscape:groupmode="layer"
     id="layer1"
     transform="translate(-14.449931,-86.397792)">
    <path
       style="fill:none;fill-rule:evenodd;stroke:#000000;stroke-width:0.264583px;stroke-linecap:butt;stroke-linejoin:miter;stroke-opacity:1"
       d="M 56.541399,93.983925 C 55.7864,93.20891 55.32198,92.186722 54.495011,91.479835 51.279924,88.7316 46.604015,87.248554 42.496483,86.749225 c -4.824698,-0.58651 -10.953922,0.01929 -15.533936,1.66915 -4.633043,1.668957 -10.668169,6.792198 -8.743652,12.336635 0.42876,1.23524 0.913497,2.39495 1.860352,3.33904 2.03677,2.03082 5.350469,2.63944 7.999511,3.43205 1.948997,0.58316 3.878757,1.19746 5.860108,1.66989 5.978533,1.42553 12.929224,3.06671 15.71997,9.27518 1.065487,2.37036 1.10042,4.80299 0.186036,7.2347 -3.069381,8.16269 -19.004266,10.22697 -26.230957,7.60604 -2.141734,-0.77676 -4.284951,-1.57969 -6.325196,-2.59711 -0.0092,-0.005 -1.478465,-0.73802 -1.488281,-0.74193 -0.337063,-0.13429 -0.678982,-0.2566 -1.023193,-0.37133 -0.05883,-0.0196 -0.241544,0.0276 -0.186035,0 1.236703,-0.6159 3.953272,-0.54567 5.022949,-0.64891 2.355558,-0.22736 3.29377,-0.31029 5.674072,-0.74193 3.023971,-0.54835 5.995261,-1.3196 9.022705,-1.85518 5.378442,-0.95149 10.737604,-1.73305 15.999023,-3.24676 3.70182,-1.06501 7.785817,-1.88835 11.254388,-3.61735 1.451174,-0.72337 2.872756,-1.74842 3.999757,-2.87542 0.109622,-0.10962 -0.310827,-0.0154 -0.465088,0 -2.684065,0.26841 -6.413976,5.27827 -7.534425,7.51301 -1.129536,2.25287 -3.033321,8.52696 0.09302,10.01785 4.33237,2.06602 9.499201,-1.74878 13.022461,-3.89566 4.421722,-2.69437 8.800264,-5.12442 11.255126,-9.83182 0.369716,-0.70895 0.643041,-1.09893 0.744141,-1.85518 0.38282,-2.86356 -5.39224,-1.67093 -6.697266,-1.02024 -0.984694,0.49097 -2.162085,1.51925 -2.790528,2.41108 -2.167946,3.07655 -4.068763,8.92345 -2.697509,12.61495 0.23953,0.64483 0.621072,1.30521 1.302247,1.57687 1.735862,0.69228 3.430349,-0.5573 4.743894,-1.48385 2.983421,-2.10445 5.121164,-5.13953 6.418215,-8.534 0.03039,-0.0795 0.626235,-1.97289 0.558104,-2.04048 -0.04618,-0.0458 -0.87155,1.36246 -0.930174,1.48385 -0.745763,1.54434 -1.283229,2.89722 -1.860352,4.54532 -2.248212,6.42021 -4.74613,13.02865 -9.115723,18.3658 -1.58223,1.93258 -4.297442,4.63759 -7.069336,4.63759 -4.017039,0 -0.326721,-8.43569 0.37207,-9.73953 2.168454,-4.04601 5.490496,-7.76365 8.4646,-11.22338 3.583644,-4.16881 7.428124,-8.47012 12.371337,-11.03735 1.519764,-0.78928 6.784441,-3.34531 7.72046,-0.27831 0.971634,3.18369 -0.957162,6.54605 -2.325439,9.27518 -1.412639,2.8176 -0.231799,0.4472 -1.581301,2.69012 -0.710237,1.41625 -0.05538,0.22128 -0.651121,1.11252 -0.03853,0.0576 -0.09302,0.25537 -0.09302,0.18604 0,-1.12587 0.764661,-2.11936 1.20923,-3.15374 1.810179,-4.21178 4.696164,-8.11631 8.650634,-10.48146 1.134729,-0.67867 3.762209,-1.93941 4.836919,-0.27831 1.23057,1.90201 1.2775,3.708 0.93017,5.84386 -0.25281,1.55465 -2.93036,8.10397 -0.46509,8.99687 1.32135,0.47858 2.61941,-0.56955 3.62769,-1.29855 4.64325,-3.35714 9.58898,-13.36935 15.44018,-14.09881 0.94617,-0.11796 1.35561,0.007 2.23242,0.37133 0.48807,0.20288 3.99976,2.25763 3.99976,2.87543 0,0.17522 -0.26676,-0.23129 -0.37208,-0.37134 -0.28394,-0.37758 -1.02057,-1.3727 -1.30224,-1.66914 -1.95902,-2.06182 -4.92681,-3.144 -7.62744,-1.76291 -4.00769,2.04952 -7.64656,7.46867 -9.20801,11.59472 -0.28138,0.74354 -0.37553,1.54503 -0.5581,2.31879 -0.20681,0.87647 -0.4171,2.03483 0.27905,2.78241 3.32561,3.57127 11.72927,-8.00952 13.30078,-10.20315 0.33518,-0.46787 0.6949,-0.91808 1.02319,-1.39083 0.23012,-0.33137 0.44035,-0.67624 0.65113,-1.02024 0.45516,-0.74285 0.92875,-1.85164 0.18603,0 -0.26594,0.66302 -1.01515,2.5143 -1.11621,2.87542 -0.5053,1.80564 -1.37067,6.99567 1.30225,7.88361 1.97724,0.65684 4.1441,-1.23556 5.39501,-2.41107 0.92592,-0.87009 1.79543,-1.80346 2.6045,-2.78315 5.99007,-7.25328 10.31825,-15.75454 14.51074,-24.11591 0.0343,-0.0684 2.19708,-4.518351 2.41846,-5.008923 0.41595,-0.921766 0.86275,-1.832343 1.20922,-2.782406 0.25971,-0.712139 0.0372,-0.705244 0.37207,-1.206278 0.34254,-0.51244 -0.34297,1.185288 -0.5581,1.762906 -1.10831,2.975776 -2.52595,5.779711 -3.7207,8.718551 -1.95366,4.80559 -3.56569,9.7391 -5.20899,14.65544 -0.95119,2.84572 -1.93138,5.65161 -2.41846,8.62627 -0.29153,1.78043 -0.58286,5.32435 1.48829,6.30748 2.97336,1.41139 5.88993,-1.3285 7.81347,-3.24676 3.74776,-3.73746 6.40694,-8.2426 9.58081,-12.42892 0.18196,-0.24 3.08787,-4.0817 3.44165,-4.0817 0.42079,0 -0.21197,0.81714 -0.37207,1.20628 -0.34771,0.84513 -0.75195,1.66595 -1.11621,2.50409 -1.83686,4.22658 -4.15466,8.74512 -4.27881,13.4499 -0.0208,0.78815 0.038,3.16607 1.11622,3.52433 1.95598,0.64993 3.91627,-0.8939 5.302,-2.04048 4.04651,-3.34818 6.97837,-8.23268 9.76684,-12.61495 1.30263,-2.04718 1.23959,-1.95664 2.3247,-3.80265 0.25384,-0.43183 0.67696,-1.20962 1.0232,-1.66989 0.0526,-0.0699 0.21377,-0.26831 0.18603,-0.1853 -0.5901,1.76563 -2.00126,3.35702 -2.78979,5.1012 -1.83643,4.06209 -3.45252,8.19777 -4.55786,12.52194 -0.22839,0.89349 -1.01024,2.98875 -0.37207,3.98869 0.76792,1.20324 3.30027,-1.43439 3.34863,-1.48386 4.30406,-4.40215 7.62784,-13.94301 14.41699,-15.11904 4.25196,-0.73654 1.54529,7.44776 0.93018,8.90458 -0.51672,1.22379 -1.15842,2.39653 -1.86036,3.52434 -0.48354,0.77691 -1.14137,1.76732 -1.76733,2.50483 -0.11327,0.13345 -0.24817,0.49425 -0.37207,0.37059 -0.29312,-0.29254 1.44237,-5.06777 1.48828,-5.19422 1.04558,-2.87987 0.9514,-2.48736 2.1394,-5.28724 1.02077,-2.40571 1.93681,-5.07358 3.72071,-7.0494 1.66417,-1.84321 2.77073,2.49881 4.37182,3.71037 1.75435,1.32752 3.87868,1.85518 6.04615,1.85518 5.14202,0 11.70661,-1.37498 15.06885,-5.65783 0.76737,-0.97749 1.60327,-3.01747 0.46508,-4.0817 -1.52778,-1.42851 -3.97069,-0.24524 -5.39502,0.55663 -4.37007,2.46026 -13.49263,11.29331 -11.62719,17.15953 0.83593,2.62876 3.7527,3.56473 6.13916,3.98868 5.82209,1.03428 12.00274,-0.0405 17.58032,-1.76216 3.84726,-1.18755 8.10504,-3.06073 6.60425,-3.06073"
       id="path845" />
    <path
       style="fill:none;fill-rule:evenodd;stroke:#000000;stroke-width:0.264583px;stroke-linecap:butt;stroke-linejoin:miter;stroke-opacity:1"
       d="m 121.839,104.27935 c 0.89917,-0.0618 1.79643,-0.20468 2.69751,-0.1853 7.28713,0.15671 4.71379,0.5458 12.09228,0.92796 2.72556,0.14117 5.45666,0.14343 8.18555,0.1853 10.62402,0.16301 21.13397,-0.0793 31.71826,1.11326 9.42559,1.06203 11.80541,1.72368 20.83593,3.52433"
       id="path847" />
    <path
       style="fill:none;fill-rule:evenodd;stroke:#000000;stroke-width:0.264583px;stroke-linecap:butt;stroke-linejoin:miter;stroke-opacity:1"
       d="m 68.633683,102.14659 -0.930174,2.13276"
       id="path849" />
  </g>
</svg>
